<svg width="52" height="52" viewBox="0 0 52 52" fill="none" xmlns="http://www.w3.org/2000/svg">
<path d="M11.9135 3.44297C10.9893 4.02188 11.0198 5.56563 11.9643 6.11406C12.1471 6.22578 12.4721 6.29688 12.7666 6.29688C14.2393 6.29688 14.869 4.59063 13.7721 3.55469C13.3963 3.20938 12.3909 3.14844 11.9135 3.44297Z" fill="#00A1FF"/>
<path d="M22.7496 3.32111C21.9675 3.60549 21.5816 4.81408 22.0386 5.56564C22.4652 6.25627 23.5011 6.52033 24.1918 6.11408C25.1363 5.56564 25.1668 4.01174 24.2425 3.45314C23.9277 3.26017 23.1152 3.18908 22.7496 3.32111Z" fill="#00A1FF"/>
<path d="M33.0996 3.48359C31.8098 4.33672 32.4191 6.29688 33.973 6.29688C34.6129 6.29688 35.1004 6.0125 35.3644 5.48437C35.9027 4.41797 35.1715 3.25 33.973 3.25C33.5973 3.25 33.3433 3.31094 33.0996 3.48359Z" fill="#00A1FF"/>
<path d="M12.0857 7.53605C11.0295 8.07433 10.9076 9.49621 11.8623 10.2071C12.2584 10.5017 13.1623 10.5321 13.5888 10.2681C14.117 9.93293 14.3404 9.48605 14.2998 8.83605C14.2185 7.63761 13.1318 6.99777 12.0857 7.53605Z" fill="#00A1FF"/>
<path d="M22.8925 7.42433C22.5269 7.5259 22.0597 7.96261 21.9277 8.30793C21.6636 9.00871 21.9378 9.87199 22.5675 10.2681C22.9941 10.5321 23.898 10.5017 24.2941 10.2071C25.4417 9.35402 24.9847 7.58683 23.5628 7.37355C23.3699 7.35324 23.0652 7.3634 22.8925 7.42433Z" fill="#00A1FF"/>
<path d="M28.1937 7.41407C27.5945 7.59688 27.1172 8.25704 27.1172 8.90704C27.1172 10.532 29.2906 11.0703 30.0422 9.63829C30.4789 8.80548 30.2148 7.98282 29.3516 7.53594C28.8742 7.30235 28.6711 7.27188 28.1937 7.41407Z" fill="#00A1FF"/>
<path d="M33.567 7.38362C33.2014 7.47503 32.6834 7.94221 32.5311 8.31799C32.2163 9.0594 32.5819 10.0242 33.2725 10.3188C33.7905 10.5321 34.4506 10.5016 34.8467 10.2274C36.035 9.43518 35.5881 7.53596 34.1764 7.37346C33.953 7.35315 33.6788 7.35315 33.567 7.38362Z" fill="#00A1FF"/>
<path d="M12.3404 11.5477C11.9544 11.6493 11.5482 12.0149 11.3552 12.4618C10.7662 13.8024 12.188 15.1126 13.5084 14.4423C14.6052 13.8938 14.6052 12.2688 13.5084 11.7001C13.0716 11.4868 12.7669 11.4462 12.3404 11.5477Z" fill="#00A1FF"/>
<path d="M17.3981 11.6795C16.3114 12.167 16.2403 13.7819 17.2864 14.4217C17.9872 14.8483 18.9724 14.5944 19.3989 13.8936C19.6731 13.4467 19.6731 12.6545 19.3989 12.2077C19.1755 11.8522 18.5052 11.4764 18.0786 11.4764C17.9364 11.4764 17.6317 11.5678 17.3981 11.6795Z" fill="#00A1FF"/>
<path d="M22.6582 11.7001C21.5512 12.279 21.5512 13.8938 22.6481 14.4423C23.9684 15.1126 25.3902 13.8024 24.8012 12.4618C24.4152 11.5985 23.491 11.2634 22.6582 11.7001Z" fill="#00A1FF"/>
<path d="M27.9705 11.6796C26.8533 12.2382 26.833 13.8835 27.94 14.4421C28.7221 14.8484 29.6361 14.564 30.0424 13.8023C30.7736 12.4414 29.3416 10.9789 27.9705 11.6796Z" fill="#00A1FF"/>
<path d="M33.3637 11.6187C32.4902 12.025 32.1551 13.0305 32.6324 13.8531C32.9371 14.4015 33.4246 14.6453 34.0848 14.5945C35.6082 14.4828 36.0754 12.6851 34.816 11.7508C34.4808 11.4969 33.7597 11.4359 33.3637 11.6187Z" fill="#00A1FF"/>
<path d="M38.736 11.5884C38.5532 11.6392 38.2688 11.8423 38.1063 12.0352C37.1618 13.1017 38.0048 14.7368 39.4266 14.6048C40.3407 14.5134 40.8688 13.8735 40.7977 12.9392C40.7571 12.3196 40.5134 11.954 39.9548 11.6798C39.5181 11.4665 39.2337 11.436 38.736 11.5884Z" fill="#00A1FF"/>
<path d="M12.137 15.7828C11.1112 16.2398 10.8878 17.6312 11.7308 18.3726C12.7667 19.2766 14.3206 18.6164 14.3206 17.2656C14.3206 16.3617 13.7722 15.7422 12.9089 15.6711C12.6448 15.6508 12.3097 15.7016 12.137 15.7828Z" fill="#00A1FF"/>
<path d="M17.3672 15.8234C16.8391 16.0874 16.5547 16.5749 16.5547 17.2148C16.5547 17.8546 16.8391 18.3421 17.3672 18.6062C18.4336 19.1445 19.6016 18.4132 19.6016 17.2148C19.6016 16.321 18.9414 15.6406 18.0781 15.6406C17.8852 15.6406 17.5602 15.7218 17.3672 15.8234Z" fill="#00A1FF"/>
<path d="M22.6485 15.8337C22.1204 16.1079 21.9071 16.4633 21.8563 17.1337C21.8258 17.6212 21.8563 17.7837 22.0594 18.0782C22.6993 19.0227 23.9993 19.0126 24.7204 18.0477C25.0454 17.611 25.0047 16.7883 24.6391 16.3008C24.1414 15.661 23.3289 15.468 22.6485 15.8337Z" fill="#00A1FF"/>
<path d="M27.9401 15.8639C27.1885 16.26 26.9041 17.1436 27.2799 17.9358C27.8182 19.0632 29.5245 19.0429 30.0729 17.9155C30.7432 16.5241 29.3112 15.1429 27.9401 15.8639Z" fill="#00A1FF"/>
<path d="M33.2414 15.8539C32.7742 16.0875 32.3984 16.6867 32.3984 17.2148C32.3984 18.0172 33.1703 18.7891 33.9625 18.7891C35.5977 18.7891 36.1359 16.5445 34.6836 15.8438C34.1453 15.5898 33.7797 15.5898 33.2414 15.8539Z" fill="#00A1FF"/>
<path d="M38.6451 15.7827C37.599 16.2397 37.3857 17.621 38.2388 18.3725C39.2849 19.2866 40.8287 18.596 40.8287 17.1944C40.8287 16.0975 39.6607 15.3358 38.6451 15.7827Z" fill="#00A1FF"/>
<path d="M9.01875 21.5921C8.53125 21.846 8.42969 22.2015 8.42969 23.5624C8.42969 24.4562 8.47031 24.8929 8.58203 25.1265C8.89688 25.7968 7.54609 25.746 25.6445 25.7765C34.6938 25.7968 42.3008 25.7765 42.5445 25.746C42.8492 25.6952 43.093 25.5835 43.2859 25.3906L43.5703 25.1062V23.5929C43.5602 22.0187 43.5398 21.9273 43.0625 21.6023C42.8289 21.4398 41.6813 21.4296 26.0508 21.4296C11.4258 21.4398 9.2625 21.4601 9.01875 21.5921Z" fill="#00A1FF"/>
<path d="M10.6641 26.7516C10.6641 26.7719 13.1523 29.7375 16.1992 33.3226L21.7344 39.8633V43.9562C21.7344 47.4195 21.7547 48.1 21.8867 48.3437C22.0594 48.6789 22.5063 48.9531 22.8719 48.9531C23.1055 48.9531 29.1383 46.6781 29.7477 46.3633C29.9203 46.282 30.1031 46.1195 30.1641 46.018C30.225 45.8961 30.2656 44.6977 30.2656 42.8797V39.9344L35.8008 33.4039C38.8477 29.8086 41.3359 26.8328 41.3359 26.782C41.3359 26.7414 34.4398 26.7109 26 26.7109C17.5703 26.7109 10.6641 26.7312 10.6641 26.7516Z" fill="#00A1FF"/>
</svg>
