<svg width="52" height="52" viewBox="0 0 52 52" fill="none" xmlns="http://www.w3.org/2000/svg">
<path d="M27.9463 2.62094C23.2228 3.46805 19.3832 6.33166 17.3115 10.5488C15.7001 13.8452 15.4147 17.9795 16.5657 21.4876C18.398 27.0859 23.3793 30.9992 29.1709 31.3952C33.517 31.699 37.5223 30.1705 40.524 27.0675C43.36 24.1302 44.7503 20.4287 44.5846 16.3037C44.428 12.5653 43.0009 9.3426 40.3398 6.67235C38.2957 4.63744 35.9386 3.34835 33.1026 2.72223C32.1634 2.51045 28.9131 2.4552 27.9463 2.62094ZM34.0878 8.67964C34.4009 8.96508 34.5758 9.33339 34.5758 9.67408C34.5758 10.07 28.4527 24.6551 28.1489 24.9774C27.3478 25.8429 25.9206 25.2628 25.9206 24.075C25.9206 23.6514 31.9977 9.09399 32.3108 8.77172C32.7896 8.28371 33.6182 8.23767 34.0878 8.67964ZM26.5007 11.3407C27.6056 11.6445 28.1213 13.0717 27.4399 13.9649C26.6204 15.0422 25.1472 14.9133 24.5395 13.7163C24.0791 12.8231 24.5395 11.7274 25.5155 11.3775C25.9575 11.221 26.0588 11.2118 26.5007 11.3407ZM34.9442 19.5448C35.8097 19.9868 36.178 21.0272 35.7544 21.8283C35.4506 22.39 34.8337 22.7675 34.226 22.7675C33.6827 22.7675 33.296 22.5833 32.9369 22.1414C32.2095 21.2574 32.4673 20.042 33.4893 19.5356C33.9958 19.287 34.4377 19.287 34.9442 19.5448Z" fill="#FF6692"/>
<path d="M16.8877 31.5884C15.6538 31.6989 14.0149 32.0856 13.3059 32.4355C12.5509 32.8038 11.759 33.5865 11.3723 34.3415C10.829 35.428 10.8198 35.4833 10.8198 42.8863V49.6356H23.2318C37.0617 49.6356 36.0672 49.6816 37.522 48.9819C38.3047 48.6043 38.3231 48.5859 43.8017 43.1073C49.6946 37.2144 49.492 37.4538 49.3539 36.6343C49.225 35.8792 47.9267 34.8664 46.389 34.3231C45.6248 34.0469 45.5051 34.0285 44.2436 34.0285C43.0282 34.0377 42.8441 34.0561 42.1719 34.2863C40.6895 34.8019 40.4317 35.0137 36.6934 38.7244C33.0563 42.3339 32.863 42.4996 31.8317 42.7206C31.0675 42.8771 22.7806 42.8587 22.3939 42.693C21.6665 42.3891 21.3534 41.6249 21.6757 40.9435C22.0624 40.1608 21.7493 40.2069 27.2095 40.1516C31.9974 40.1056 32.0527 40.1056 32.5683 39.8938C33.8114 39.3966 34.6032 38.264 34.769 36.754C34.861 35.9437 34.8518 35.8792 34.6493 35.4741C34.2441 34.6546 34.3454 34.6822 30.8189 34.627L27.7159 34.5717L26.8688 34.2863C26.4084 34.1205 25.2666 33.6417 24.3367 33.2182C22.3754 32.3158 21.3718 31.9383 20.3498 31.7449C19.3922 31.5516 17.9926 31.4963 16.8877 31.5884Z" fill="#FF6692"/>
<path d="M4.30965 36.2014C4.03342 36.3395 3.86768 36.5052 3.73877 36.7815C3.55462 37.159 3.54541 37.3155 3.54541 42.877C3.54541 48.2543 3.55462 48.595 3.72036 48.8989C3.81243 49.0738 4.02421 49.3132 4.18995 49.4237C4.47538 49.6263 4.57667 49.6355 6.31692 49.6355H8.14924V42.8218V36.008H6.42741C4.86211 36.008 4.65954 36.0264 4.30965 36.2014Z" fill="#FF6692"/>
</svg>
