<svg width="52" height="52" viewBox="0 0 52 52" fill="none" xmlns="http://www.w3.org/2000/svg">
<path d="M23.2515 2.38564C22.1416 2.52306 20.5455 2.78732 19.721 2.97759C18.0086 3.3687 17.9874 3.61182 19.4144 6.29673L20.4398 8.2417H25.9999H31.5599L32.5853 6.29673C34.0017 3.61182 33.9806 3.34756 32.3316 2.96702C30.4183 2.52306 29.1921 2.40678 26.4227 2.37507C24.8794 2.35393 23.4524 2.3645 23.2515 2.38564Z" fill="#8965E5"/>
<path d="M18.1361 10.6411C16.8782 11.899 15.948 13.4845 15.3561 15.3978C15.0812 16.2752 15.0707 16.4443 15.0707 18.3893C15.0707 20.3342 15.0812 20.5034 15.3561 21.4019C15.7894 22.8077 16.4871 24.1608 17.0896 24.7738C17.375 25.0698 17.893 25.4292 18.2841 25.6195L18.9712 25.9472L22.0683 25.9789L25.1549 26.0106V27.2685V28.5369H18.3686C11.7727 28.5369 11.5612 28.5475 11.223 28.7483C10.5782 29.1395 10.4619 29.4777 10.4619 30.9893C10.4619 32.2049 10.4831 32.3635 10.6733 32.5537C10.9059 32.7863 11.4978 32.8391 11.8361 32.6594C12.1215 32.5114 12.2589 31.9829 12.2589 31.0633V30.2282H18.7069H25.1549V31.2853C25.1549 32.5326 25.2818 32.7651 26.0005 32.7651C26.7193 32.7651 26.8462 32.5326 26.8462 31.2853V30.2282H33.2942H39.7422V31.0633C39.7422 31.9829 39.8796 32.5114 40.165 32.6594C40.5033 32.8391 41.0952 32.7863 41.3278 32.5537C41.518 32.3635 41.5392 32.2049 41.5392 30.9893C41.5392 29.4777 41.4229 29.1395 40.7781 28.7483C40.4398 28.5475 40.2284 28.5369 33.643 28.5369H26.8462V27.279V26.0106L29.9433 25.9789L33.0299 25.9472L33.717 25.6195C34.1081 25.4292 34.6261 25.0698 34.9115 24.7738C35.514 24.1608 36.2117 22.8077 36.645 21.4019C36.9199 20.5034 36.9304 20.3342 36.9304 18.4421C36.9304 16.7191 36.8987 16.3174 36.7085 15.6198C36.1694 13.696 35.1652 11.9307 33.865 10.6411L33.1462 9.93286H26.0005H18.8549L18.1361 10.6411ZM26.5185 12.7763C26.6348 12.8926 26.7616 13.1569 26.8039 13.3577C26.8673 13.7382 26.8673 13.7382 27.4381 13.7382C28.5163 13.7382 28.992 14.1293 28.8123 14.8587C28.696 15.3027 28.2098 15.4295 26.5819 15.4295C25.2923 15.4295 25.1338 15.4507 24.9435 15.6409C24.6687 15.9158 24.6581 16.624 24.9224 16.8882C25.0703 17.0362 25.3452 17.0997 26.0745 17.1525C27.1527 17.2159 27.639 17.4168 28.1886 17.9876C28.8546 18.6747 29.0554 19.7951 28.6537 20.6619C28.4212 21.1799 27.7447 21.8141 27.2479 21.9727C26.9202 22.0784 26.8673 22.1524 26.8039 22.5223C26.7193 23.0403 26.4128 23.3574 26.0005 23.3574C25.5989 23.3574 25.2923 23.0508 25.1972 22.5752C25.1338 22.1946 25.1338 22.1946 24.563 22.1946C23.4848 22.1946 23.0091 21.8035 23.1888 21.0742C23.3051 20.6302 23.7913 20.5034 25.4192 20.5034C26.7088 20.5034 26.8673 20.4822 27.0576 20.2919C27.3324 20.0171 27.343 19.3089 27.0787 19.0446C26.9308 18.8966 26.6559 18.8332 25.9794 18.7804C24.9329 18.7064 24.4044 18.5161 23.897 18.0404C23.1677 17.3428 22.9351 16.1695 23.3474 15.271C23.5799 14.753 24.2564 14.1188 24.7532 13.9602C25.0809 13.8545 25.1338 13.7805 25.1972 13.4106C25.2289 13.1886 25.3557 12.9032 25.472 12.7869C25.7363 12.5226 26.2542 12.5121 26.5185 12.7763Z" fill="#8965E5"/>
<path d="M9.78528 35.5559C8.16799 36.2324 7.29064 37.5749 7.29064 39.3507C7.30121 40.3549 7.5549 41.1266 8.14685 41.8665L8.49568 42.3105L8.24199 42.4796C7.21665 43.135 6.25473 44.4246 5.90591 45.5767C5.57822 46.6444 5.64164 47.9868 6.05389 48.5999C6.21245 48.843 6.54014 49.1707 6.78326 49.3293L7.22722 49.6252H11.3074H15.3876L15.8316 49.3293C16.0747 49.1707 16.4024 48.843 16.561 48.5999C16.9732 47.9868 17.0366 46.6444 16.709 45.5767C16.3601 44.4246 15.3982 43.135 14.3729 42.4796L14.1192 42.3105L14.4574 41.8771C16.1064 39.8053 15.3982 36.7504 13.0199 35.6405C12.523 35.4079 12.2376 35.3551 11.4131 35.3234C10.5464 35.3022 10.3244 35.3339 9.78528 35.5559Z" fill="#8965E5"/>
<path d="M24.4774 35.5559C22.8601 36.2324 21.9827 37.5749 21.9827 39.3507C21.9933 40.3549 22.247 41.1266 22.8389 41.8665L23.1878 42.3105L22.9341 42.469C22.7861 42.5642 22.3527 42.9447 21.9721 43.3358C20.8411 44.4668 20.3443 45.7564 20.4077 47.342C20.4606 48.3039 20.746 48.8536 21.4753 49.3293L21.9193 49.6252H25.9995H30.0797L30.5237 49.3293C31.253 48.8536 31.5385 48.3039 31.5913 47.342C31.6547 45.7564 31.1579 44.4668 30.0269 43.3358C29.6463 42.9447 29.2129 42.5642 29.0755 42.4796L28.8113 42.3105L29.2024 41.8136C29.826 40.9891 30.0374 40.2809 29.9952 39.1604C29.9634 38.336 29.9106 38.1034 29.6252 37.5115C29.2129 36.6764 28.547 36.0316 27.7119 35.6405C27.2151 35.4079 26.9297 35.3551 26.1052 35.3234C25.2384 35.3022 25.0165 35.3339 24.4774 35.5559Z" fill="#8965E5"/>
<path d="M39.2032 35.5453C38.4844 35.8519 38.0722 36.1267 37.6388 36.6235C36.3598 38.0823 36.3175 40.3338 37.5437 41.8771L37.8819 42.3105L37.6282 42.4796C36.6029 43.135 35.641 44.4246 35.2921 45.5767C34.9645 46.6444 35.0279 47.9868 35.4401 48.5999C35.5987 48.843 35.9264 49.1707 36.1695 49.3293L36.6134 49.6252H40.6937H44.7739L45.2178 49.3293C45.461 49.1707 45.7886 48.843 45.9472 48.5999C46.3594 47.9868 46.4229 46.6444 46.0952 45.5767C45.7464 44.4246 44.7739 43.135 43.7697 42.4796L43.5054 42.3105L43.8965 41.8136C44.5202 40.9891 44.7316 40.2809 44.6893 39.1604C44.6576 38.3359 44.6047 38.1034 44.3193 37.5115C43.9071 36.6764 43.2412 36.0316 42.4061 35.6405C41.9093 35.4079 41.6239 35.3551 40.7994 35.3234C39.9432 35.3022 39.7106 35.3339 39.2032 35.5453Z" fill="#8965E5"/>
</svg>
