<svg width="52" height="52" viewBox="0 0 52 52" fill="none" xmlns="http://www.w3.org/2000/svg">
<path d="M13.0476 5.2317C7.68197 6.82287 3.06571 8.20127 2.79743 8.28453L2.30713 8.43255L2.34413 16.1294C2.38114 24.5201 2.36264 24.3258 2.96395 27.0178C4.42561 33.6138 8.38505 39.6825 13.8802 43.7344C14.5185 44.2062 21.651 48.804 22.7426 49.4423C22.8536 49.5071 26.1748 47.4904 26.184 47.3423C26.184 47.3053 25.9065 46.926 25.5642 46.5097C24.8241 45.6031 24.2135 44.6688 23.7325 43.7437L23.381 43.0591H22.9092C22.4559 43.0684 22.3448 43.0036 19.9488 41.4679C16.9978 39.5715 15.9524 38.7851 14.537 37.4252C11.2159 34.2151 8.8476 29.9042 7.96875 25.4452C7.58021 23.447 7.56171 23.1787 7.5247 18.0259C7.47845 12.54 7.47845 12.6048 7.98726 12.2717C8.23703 12.096 22.5391 7.86824 22.8444 7.86824C23.1682 7.86824 37.4333 12.096 37.7015 12.2717C38.2103 12.6048 38.2196 12.651 38.2103 17.5541L38.2011 22.0686L39.0614 22.1703C40.1346 22.3091 41.2354 22.5866 42.3548 23.0122C42.8358 23.1879 43.2521 23.3082 43.2799 23.2712C43.3169 23.2342 43.3539 19.8853 43.3724 15.8241L43.4002 8.4418L42.9561 8.29379C42.6046 8.18277 23.2792 2.46564 22.8999 2.36388C22.8536 2.34538 18.4132 3.64052 13.0476 5.2317Z" fill="#01C3AC"/>
<path d="M16.2215 12.1053L9.81055 14.011V18.1554C9.81055 22.5404 9.86605 23.4193 10.2453 25.214C11.2445 29.9968 14.0753 34.4835 17.9052 37.3883C18.895 38.1377 22.3734 40.3857 22.4382 40.3209C22.4659 40.3024 22.4104 39.9509 22.3272 39.5438C22.1052 38.4522 22.1052 35.5936 22.3364 34.3725C22.947 31.0976 24.7324 27.906 27.1377 25.8153C29.4597 23.7893 32.4478 22.4387 35.2509 22.1334L35.8522 22.0686L35.8799 18.0444L35.8984 14.011L29.4042 12.096C25.8241 11.0414 22.836 10.1811 22.762 10.1903C22.688 10.1996 19.7369 11.0599 16.2215 12.1053Z" fill="#01C3AC"/>
<path d="M35.1494 24.4275C32.3463 24.8716 29.9503 26.1112 27.9613 28.165C26.1574 30.0244 25.001 32.2909 24.5662 34.7887C24.3627 35.9266 24.3627 38.0635 24.5662 39.1829C25.0473 41.912 26.6199 44.7335 28.6182 46.4542C30.7551 48.3044 33.2067 49.3405 36.0005 49.5903C41.8286 50.0991 47.2405 46.5282 49.0814 40.9591C49.507 39.6455 49.6827 38.5168 49.6827 36.9627C49.6827 33.5583 48.5356 30.6627 46.2321 28.2575C44.4744 26.4165 42.6242 25.3341 40.1542 24.6866C39.1921 24.4368 38.9238 24.3998 37.3789 24.372C36.4353 24.3628 35.4362 24.3813 35.1494 24.4275ZM37.6379 28.4055C38.0357 28.646 38.2115 29.0901 38.2115 29.8394C38.2115 30.4037 38.23 30.45 38.452 30.5332C39.6176 30.9773 40.6075 32.4112 40.626 33.6786C40.6352 34.2984 40.5242 34.5482 40.1264 34.7887C39.4326 35.2142 38.5445 34.7979 38.4335 34.0023C38.304 33.0402 37.8507 32.5684 37.0551 32.5684C36.1947 32.5684 35.7137 33.1143 35.7137 34.0856C35.7137 34.6869 35.9542 35.2605 36.315 35.4918C36.4445 35.575 36.9163 35.7508 37.3604 35.8711C37.8044 36.0006 38.4057 36.2318 38.7018 36.3891C40.848 37.527 41.3476 40.7371 39.6454 42.5503C39.4141 42.8001 38.9978 43.1239 38.7203 43.2719L38.2115 43.5309V44.1137C38.2115 45.1406 37.8044 45.7049 37.0551 45.7049C36.3058 45.7049 35.8987 45.1406 35.8987 44.1137V43.5309L35.3899 43.2719C33.7155 42.393 32.8366 39.9138 33.9468 39.1644C34.3168 38.9146 34.6868 38.8961 35.0754 39.0904C35.4084 39.2662 35.7137 39.738 35.7137 40.0895C35.7137 40.2283 35.7692 40.4873 35.8432 40.6538C36.2595 41.6529 37.8507 41.6529 38.267 40.6538C38.452 40.219 38.4242 39.4419 38.2207 38.9886C38.0079 38.5168 37.6102 38.2671 36.7776 38.082C34.9181 37.6565 33.734 36.4446 33.4749 34.6869C33.2252 32.994 34.0485 31.3196 35.4824 30.6257L35.8987 30.4222V29.8301C35.8987 29.4971 35.9542 29.0901 36.0282 28.9143C36.1855 28.5442 36.6573 28.2205 37.0551 28.2205C37.2124 28.2205 37.4714 28.3037 37.6379 28.4055Z" fill="#01C3AC"/>
</svg>
