<svg width="52" height="52" viewBox="0 0 52 52" fill="none" xmlns="http://www.w3.org/2000/svg">
<path d="M36.4709 9.32362C34.5717 13.1221 33.4038 15.5697 33.4444 15.6713C33.4952 15.8033 33.7694 15.8338 35.2827 15.8642C37.2834 15.8947 37.4967 15.9658 37.7709 16.6971L37.9131 17.0728L35.8514 22.2525C33.7084 27.5947 33.678 27.7166 34.1553 27.808C34.2569 27.8283 36.7147 25.0455 41.3053 19.683C45.1545 15.1939 48.3741 11.4158 48.4655 11.2838C48.5975 11.101 48.6077 10.9892 48.5366 10.8471C48.4452 10.6846 48.2928 10.6642 47.1147 10.6642C46.0483 10.6642 45.7233 10.6338 45.4897 10.4916C45.1139 10.2682 44.8499 9.71972 44.9311 9.33378C44.9616 9.17128 45.7842 7.90174 46.7491 6.52049C48.9327 3.41268 48.8717 3.51424 48.7905 3.31112C48.7295 3.16893 48.303 3.14862 44.1389 3.14862H39.5584L36.4709 9.32362Z" fill="#8965E5"/>
<path d="M19.9572 9.04921C13.6197 9.2625 9.84156 10.2375 7.465 12.2891C5.515 13.9648 4.3775 16.3516 3.76812 20.0484C3.46343 21.8766 3.35172 23.1156 3.24 26.1828C3.0775 30.7023 3.3314 35.6891 3.86968 38.4719C4.87515 43.6719 7.22125 46.4547 11.7103 47.7445C14.3712 48.5164 16.6564 48.75 21.897 48.8211C28.5087 48.9125 32.1548 48.5672 35.1306 47.5719C40.3205 45.8453 42.3822 42.25 42.9611 33.9219C43.0931 32.0227 43.0931 25.7562 42.9611 23.918C42.8392 22.232 42.565 19.9062 42.4634 19.7234C42.4228 19.6422 41.0619 21.1555 38.6548 23.9687C36.5931 26.3758 34.8259 28.3867 34.7244 28.4375C34.4197 28.6102 33.8205 28.5492 33.5056 28.3258C33.3431 28.2141 33.1705 27.9602 33.0994 27.7469C32.9978 27.3812 33.0689 27.168 35.0392 22.2016C36.5931 18.2914 37.0705 16.9914 36.9994 16.8695C36.9181 16.7375 36.5931 16.6969 35.1205 16.6562C33.0892 16.5953 32.8962 16.5344 32.6931 15.8336L32.5611 15.4172L33.8205 12.8883C34.633 11.2734 35.0494 10.3289 34.9884 10.268C34.7142 10.0141 31.9416 9.47578 29.6564 9.24218C28.6509 9.14062 23.3189 8.92734 22.547 8.95781C22.3541 8.96796 21.1861 9.00859 19.9572 9.04921ZM23.4408 17.3875C23.522 17.4687 23.5627 17.8648 23.5627 18.4742V19.4492L24.6291 19.6219C26.2947 19.8961 27.7267 20.5562 28.6712 21.4805C29.1892 21.9984 29.3009 22.3844 28.9455 22.4961C28.7931 22.5469 28.59 22.4352 28.1533 22.0391C27.1783 21.1656 25.665 20.5258 24.172 20.3531L23.5627 20.282V24.4055V28.5289L24.0501 28.5898C26.1423 28.8641 27.483 29.5141 28.4681 30.7227C30.2759 32.957 29.5142 36.1258 26.8431 37.5578C26.183 37.9031 25.0353 38.2383 24.1517 38.35L23.5728 38.4109L23.5423 39.4367C23.5119 40.2695 23.4814 40.4727 23.3392 40.5641C23.2072 40.6453 23.1056 40.6453 22.9837 40.5641C22.8314 40.4727 22.8009 40.2695 22.7705 39.4367L22.74 38.4109L22.1814 38.3398C20.7291 38.157 19.0939 37.4766 17.8548 36.532C17.1337 35.9937 16.9611 35.7398 17.1642 35.4961C17.3572 35.2625 17.5197 35.3133 18.2408 35.8516C19.4087 36.7453 20.8712 37.3648 22.1712 37.5273L22.7502 37.5984V33.4852V29.3617L22.2728 29.3008C21.2267 29.1687 20.3127 28.925 19.6423 28.6C17.7127 27.6758 16.5345 25.6344 16.8595 23.7758C17.2556 21.4805 19.2767 19.8555 22.1205 19.5406L22.7502 19.4695V18.4945C22.7502 17.4891 22.8212 17.2656 23.1564 17.2656C23.2478 17.2656 23.3697 17.3164 23.4408 17.3875Z" fill="#8965E5"/>
<path d="M21.3383 20.4649C19.9266 20.7798 18.6266 21.6735 18.0477 22.7196C17.1336 24.4157 17.743 26.4978 19.4797 27.6149C20.079 27.9907 21.2875 28.397 22.1204 28.4782L22.75 28.5493V24.4259V20.3126L22.3743 20.3228C22.161 20.3228 21.6938 20.3938 21.3383 20.4649Z" fill="#8965E5"/>
<path d="M23.5625 33.4648V37.5781H23.8164C24.3547 37.5781 25.6648 37.243 26.2742 36.9586C27.1172 36.5625 27.9195 35.8109 28.2852 35.0695C28.5594 34.5312 28.5898 34.3891 28.5898 33.4648C28.5898 32.307 28.4172 31.8398 27.7164 31.0375C26.975 30.1945 25.6039 29.5547 24.2023 29.4125L23.5625 29.3414V33.4648Z" fill="#8965E5"/>
</svg>
