<svg width="52" height="52" viewBox="0 0 52 52" fill="none" xmlns="http://www.w3.org/2000/svg">
<path d="M2.36377 3.93962V5.51538H13.3941H24.4244V3.93962V2.36387H13.3941H2.36377V3.93962Z" fill="#FF6692"/>
<path d="M37.7394 2.55103C37.5621 2.66921 37.3356 2.89573 37.2272 3.073C37.0401 3.38815 37.0303 3.58512 37.0303 8.42073C37.0303 11.7791 37.0697 13.5715 37.1386 13.8374C37.1977 14.0541 37.4144 14.3889 37.6212 14.5957L37.9954 14.97H43.2939C48.4151 14.97 48.6121 14.9601 48.9272 14.773C49.1045 14.6647 49.331 14.4382 49.4492 14.2609C49.6363 13.9654 49.6462 13.8275 49.5969 12.7048C49.5477 11.2669 49.3212 10.2624 48.7697 8.98209C47.6863 6.46088 45.5394 4.31391 43.0182 3.23058C41.7378 2.67906 40.7333 2.45255 39.2954 2.4033C38.1727 2.35406 38.0348 2.36391 37.7394 2.55103Z" fill="#FF6692"/>
<path d="M2.36377 10.2426V11.8184H9.45468H16.5456V10.2426V8.66684H9.45468H2.36377V10.2426Z" fill="#FF6692"/>
<path d="M29.9893 8.86382C27.8423 9.31685 26.0794 10.2722 24.5135 11.8184C21.3226 14.96 20.3574 19.7464 22.0612 23.9812C23.2135 26.8865 25.7741 29.2699 28.7484 30.2252C30.4127 30.7669 32.8256 30.8949 34.5196 30.5403C38.2029 29.7722 41.1377 27.3396 42.5559 23.9025C43.2749 22.1396 43.5802 19.5593 43.137 18.8403C42.7332 18.1706 42.7627 18.1805 39.0991 18.1214C36.0067 18.0722 35.7703 18.0623 35.3567 17.8653C34.7953 17.5994 34.4014 17.2055 34.1355 16.6441C33.9385 16.2305 33.9287 15.9941 33.8794 12.9017C33.8203 9.23806 33.8302 9.26761 33.1605 8.86382C32.737 8.60776 31.2302 8.60776 29.9893 8.86382Z" fill="#FF6692"/>
<path d="M8.42081 19.8843C8.20415 19.9827 7.889 20.2191 7.71172 20.3964C7.05187 21.0956 7.09127 20.3373 7.09127 32.4017V43.3335H11.8185H16.5458V32.3721C16.5458 21.913 16.536 21.4009 16.3587 21.0267C16.2602 20.81 16.0238 20.4949 15.8466 20.3176C15.2064 19.7168 15.0882 19.6971 11.7988 19.6971C9.10036 19.6971 8.77536 19.7168 8.42081 19.8843Z" fill="#FF6692"/>
<path d="M22.6025 32.4903C22.3858 32.5888 22.0707 32.8252 21.8934 33.0024C21.2631 33.6721 21.273 33.5933 21.273 38.7047V43.3335H26.0002H30.7275V38.6752C30.7275 33.485 30.7374 33.5933 30.0283 32.9236C29.3881 32.3229 29.2699 32.3032 25.9805 32.3032C23.282 32.3032 22.957 32.3229 22.6025 32.4903Z" fill="#FF6692"/>
<path d="M36.7841 37.2176C36.5675 37.3161 36.2523 37.5524 36.075 37.7297C35.494 38.3403 35.4546 38.557 35.4546 41.0683V43.3335H40.1819H44.9091V41.0388C44.9091 38.488 44.8599 38.2714 44.2099 37.6509C43.5697 37.0502 43.4516 37.0305 40.1622 37.0305C37.4637 37.0305 37.1387 37.0502 36.7841 37.2176Z" fill="#FF6692"/>
<path d="M2.36377 48.0607V49.6365H26.0001H49.6365V48.0607V46.485H26.0001H2.36377V48.0607Z" fill="#FF6692"/>
</svg>
