<svg width="42" height="42" viewBox="0 0 42 42" fill="none" xmlns="http://www.w3.org/2000/svg">
<path d="M36.1897 2.97276C34.6219 3.35533 33.5717 4.91561 33.8118 6.5284C33.8568 6.83596 33.8718 7.11351 33.8418 7.14351C33.7743 7.20352 28.7184 10.2041 28.6808 10.2041C28.6658 10.2041 28.5083 10.0915 28.3283 9.95652C28.1483 9.8215 27.8182 9.62646 27.5932 9.52894C27.2406 9.36391 27.0831 9.34141 26.3254 9.34141C25.5378 9.34141 25.4253 9.35641 25.0202 9.55145C24.4576 9.814 23.9925 10.1891 23.7225 10.6091L23.5124 10.9317L21.2095 9.78399L18.8991 8.62878V8.23121C18.8991 6.97098 18.1865 5.85328 17.0237 5.29818C16.6112 5.10314 16.4311 5.06564 15.8235 5.04313C15.2384 5.02063 15.0284 5.04313 14.6308 5.17816C13.7532 5.47071 13.123 6.03331 12.7255 6.89597C12.4404 7.50358 12.3579 8.44125 12.5379 9.06386L12.6505 9.43893L9.6274 11.6968L6.60436 13.9472L6.2818 13.8047C5.78671 13.5872 5.11159 13.5047 4.51898 13.5872C3.48379 13.7297 2.54612 14.4123 2.07354 15.3725C1.841 15.8451 1.8335 15.8976 1.8335 16.7678C1.8335 17.6379 1.841 17.6904 2.08104 18.178C3.06372 20.1734 5.7042 20.6234 7.27948 19.0557C7.76707 18.5681 8.05962 17.998 8.18714 17.2703C8.26966 16.7828 8.24716 16.4002 8.08213 15.7626C8.06712 15.6951 9.22233 14.7874 11.1052 13.3846L14.1507 11.1117L14.5558 11.2693C14.8559 11.3893 15.1334 11.4343 15.636 11.4343C16.4161 11.4418 16.8962 11.3068 17.4813 10.9092C17.6914 10.7667 17.8864 10.6541 17.9164 10.6541C17.9389 10.6541 19.1316 11.2318 20.5644 11.9444L23.1674 13.2346L23.2874 13.5647C23.4599 14.0823 23.7225 14.4873 24.1425 14.8849C25.8078 16.4302 28.5983 15.7626 29.3785 13.6247C29.4385 13.4597 29.5135 13.0846 29.536 12.7995L29.5885 12.2744L32.439 10.5791L35.2895 8.88383L35.7021 9.07136C36.0697 9.24389 36.2122 9.2664 37.0149 9.2664C37.8625 9.2664 37.945 9.25139 38.3651 9.04886C38.9877 8.7413 39.6028 8.13369 39.9104 7.51858C40.1579 7.03099 40.1654 6.98598 40.1654 6.11583C40.1654 5.23817 40.1579 5.20066 39.9104 4.69057C39.5953 4.06046 39.0927 3.53536 38.5076 3.24281C37.7275 2.85274 37.0299 2.77022 36.1897 2.97276Z" fill="#00A1FF"/>
<path d="M34.2691 15.8526C34.1265 15.9426 33.954 16.1376 33.8865 16.2802C33.759 16.5277 33.7515 17.2103 33.7515 27.4122C33.7515 38.0941 33.7515 38.2891 33.9015 38.5967C34.1865 39.1818 34.2316 39.1968 36.842 39.2193C38.3123 39.2343 39.25 39.2118 39.445 39.1593C39.625 39.1143 39.8276 38.9793 39.9701 38.8217L40.2026 38.5517V27.4722C40.2026 16.7678 40.1951 16.3852 40.0601 16.1601C39.7826 15.7026 39.655 15.6801 36.9545 15.6801C34.5541 15.6801 34.5241 15.6801 34.2691 15.8526Z" fill="#00A1FF"/>
<path d="M13.168 17.8554C13.0554 17.8929 12.8904 17.9829 12.8079 18.0579C12.4328 18.3955 12.4478 17.9004 12.4478 28.5223C12.4478 38.2291 12.4553 38.4541 12.5979 38.6867C12.9054 39.1967 12.8979 39.1967 15.5609 39.2193C17.9313 39.2418 17.9688 39.2343 18.2989 39.0692C18.9515 38.7392 18.899 39.6618 18.899 28.5073C18.899 17.3528 18.9515 18.2755 18.2989 17.9454C17.9763 17.7879 17.9088 17.7804 15.6734 17.7879C14.4132 17.7879 13.288 17.8254 13.168 17.8554Z" fill="#00A1FF"/>
<path d="M23.7081 22.1912C23.5656 22.2587 23.378 22.4162 23.2955 22.5287C23.138 22.7388 23.138 22.7838 23.1155 30.5552C23.1005 39.4068 23.048 38.7392 23.7006 39.0692C24.0306 39.2343 24.0681 39.2418 26.4386 39.2193C29.1016 39.1967 29.0941 39.1967 29.4016 38.6867C29.5441 38.4541 29.5516 38.2441 29.5516 30.6377V22.8288L29.3791 22.5737C29.0415 22.0711 28.9665 22.0561 26.3261 22.0561C24.2257 22.0561 23.9331 22.0711 23.7081 22.1912Z" fill="#00A1FF"/>
<path d="M2.31378 26.4885C1.76619 26.8111 1.79619 26.4135 1.79619 32.8122V38.5507L2.02873 38.8208C2.17126 38.9783 2.3738 39.1133 2.55383 39.1583C2.74886 39.2108 3.68653 39.2333 5.1568 39.2183C7.76727 39.1958 7.81228 39.1808 8.09733 38.5957C8.23986 38.2957 8.24736 38.1156 8.24736 32.7372C8.24736 27.4862 8.23986 27.1787 8.10483 26.9311C8.02982 26.7886 7.87979 26.6011 7.76727 26.5185C7.57224 26.376 7.44471 26.3685 5.07428 26.3535C2.65885 26.331 2.57633 26.3385 2.31378 26.4885Z" fill="#00A1FF"/>
</svg>
