<svg width="42" height="42" viewBox="0 0 42 42" fill="none" xmlns="http://www.w3.org/2000/svg">
<path d="M11.9432 2.7995C11.3854 2.98817 10.7291 3.39833 10.3846 3.75926L10.1467 4.01356H11.2213C14.2564 4.01356 16.9389 5.12098 19.0717 7.26199C20.7287 8.91082 21.7869 10.937 22.1971 13.2175C22.3775 14.2347 22.3775 15.9573 22.1971 16.9745C21.3439 21.7241 17.6361 25.3417 12.8373 26.0882C12.1646 26.1948 10.3107 26.203 9.69551 26.1046L9.26074 26.0307L9.28535 31.2479L9.30996 36.4651L9.61348 37.105C10.04 37.9909 10.5979 38.5569 11.4756 38.9917L12.1646 39.3362L23.4932 39.3608C36.1588 39.3854 35.3795 39.4182 36.3229 38.803C37.3072 38.1632 37.9635 37.187 38.1439 36.0878C38.1932 35.7432 38.226 31.8632 38.226 25.0054V14.4479L33.9439 14.4233C29.8424 14.3905 29.6291 14.3823 29.1451 14.2182C27.8654 13.7917 26.9303 12.8155 26.5283 11.4948C26.4381 11.2077 26.4135 10.2151 26.4135 6.87645V2.62723H19.4244C12.6158 2.63543 12.4107 2.63543 11.9432 2.7995ZM32.2377 22.5772C32.3854 22.6839 32.5904 22.8725 32.6807 22.9956C32.8529 23.2253 32.8529 23.2827 32.8529 28.221C32.8529 33.1593 32.8529 33.2167 32.6807 33.4464C32.09 34.2421 30.999 34.2503 30.515 33.4546C30.3592 33.1921 30.351 33.028 30.351 28.221C30.351 23.4139 30.3592 23.2499 30.515 22.9874C30.876 22.405 31.6881 22.2081 32.2377 22.5772ZM21.7377 26.5147C21.8854 26.6214 22.0904 26.81 22.1807 26.9331C22.3447 27.1628 22.3529 27.253 22.3529 30.1897C22.3529 33.1264 22.3447 33.2167 22.1807 33.4464C21.59 34.2421 20.499 34.2503 20.015 33.4546C19.8592 33.2003 19.851 33.0362 19.851 30.1897C19.851 27.3432 19.8592 27.1792 20.015 26.9249C20.376 26.3425 21.1881 26.1456 21.7377 26.5147ZM26.9877 27.8272C27.1354 27.9339 27.3404 28.1225 27.4307 28.2456C27.5947 28.4671 27.6029 28.5737 27.6029 30.846C27.6029 33.1182 27.5947 33.2249 27.4307 33.4464C26.84 34.2421 25.749 34.2503 25.265 33.4546C25.1092 33.2003 25.101 33.0362 25.101 30.846C25.101 28.6557 25.1092 28.4917 25.265 28.2374C25.626 27.655 26.4381 27.4581 26.9877 27.8272ZM16.4877 30.4604C16.9963 30.7968 17.1029 31.0921 17.1029 32.1585C17.1029 32.9624 17.0783 33.1429 16.9307 33.3889C16.4385 34.2421 15.2654 34.2749 14.765 33.4546C14.6256 33.2249 14.601 33.0362 14.601 32.1585C14.601 31.2807 14.6256 31.0921 14.765 30.8624C15.126 30.28 15.9381 30.0831 16.4877 30.4604Z" fill="#FF6692"/>
<path d="M28.957 6.73696C28.957 11.3471 28.9488 11.2405 29.5231 11.626L29.802 11.8147H33.9363H38.0707L38.0215 11.626C37.8902 11.1831 37.5375 10.576 37.1438 10.1249C35.5441 8.28735 31.1309 3.52134 30.8766 3.34907C30.4254 3.03735 29.7117 2.72563 29.3098 2.66001L28.957 2.60259V6.73696Z" fill="#FF6692"/>
<path d="M8.87578 6.85992C7.37461 7.30289 6.16875 8.03297 5.07773 9.165C3.48633 10.822 2.70703 12.758 2.70703 15.0959C2.70703 17.524 3.49453 19.4271 5.20078 21.1334C6.48047 22.413 7.77656 23.1185 9.51562 23.4795C10.6641 23.7173 12.5344 23.6599 13.568 23.3482C16.0207 22.6099 17.8664 21.0595 18.9492 18.8283C19.3184 18.0818 19.6875 16.9334 19.6875 16.556C19.6875 16.4166 19.5152 16.4084 16.2258 16.4084C12.6246 16.4084 11.952 16.3591 11.3859 16.072C10.8937 15.8177 10.3687 15.2353 10.1801 14.7185C10.016 14.292 10.0078 14.1033 10.0078 10.4611V6.64664L9.78633 6.65484C9.65508 6.65484 9.25312 6.74508 8.87578 6.85992Z" fill="#FF6692"/>
<path d="M12.5508 10.2151V13.7834H16.1191C19.507 13.7834 19.6875 13.7752 19.6875 13.6358C19.6875 13.2584 19.3184 12.11 18.9492 11.3635C17.8664 9.13228 15.9715 7.54087 13.5844 6.85181C13.1906 6.73696 12.7887 6.64673 12.7066 6.64673C12.559 6.64673 12.5508 6.76978 12.5508 10.2151Z" fill="#FF6692"/>
</svg>
