<svg width="42" height="42" viewBox="0 0 42 42" fill="none" xmlns="http://www.w3.org/2000/svg">
<path d="M11.0991 2.95313C9.15322 3.47471 7.7289 4.90907 7.21735 6.865C7.08696 7.37655 7.06689 9.24221 7.06689 20.9678C7.06689 30.3763 7.09699 34.6393 7.17723 35.0104C7.56842 36.8861 9.07298 38.4809 10.9687 39.0426C11.4502 39.1831 12.4332 39.2031 18.8426 39.2031C26.7767 39.2031 26.6062 39.2131 27.7797 38.6414C28.9934 38.0596 30.1369 36.6253 30.498 35.2411C30.5983 34.88 30.6384 33.9472 30.6384 31.911V29.0924L31.1199 28.7313C31.9123 28.1596 33.0959 26.8456 33.5874 26.0031C34.46 24.5085 34.8412 23.2146 34.9214 21.4492C34.9816 19.9948 34.8211 18.9316 34.3396 17.5976C33.7779 16.0428 32.5643 14.3979 31.2302 13.3647L30.6384 12.9133V10.0747C30.6384 7.77777 30.6083 7.13582 30.4779 6.69448C29.9162 4.79873 28.3214 3.29416 26.4457 2.90298C26.0846 2.83276 23.587 2.79264 18.7724 2.80267C12.9247 2.80267 11.5304 2.83276 11.0991 2.95313ZM26.0846 5.1498C26.9773 5.41058 27.9001 6.20299 28.1609 6.92518C28.2211 7.0957 27.7396 7.10573 18.8426 7.10573H9.46417L9.62465 6.79478C10.0058 6.06256 10.8082 5.39053 11.6107 5.13976C12.2727 4.93916 25.3925 4.93916 26.0846 5.1498ZM26.9271 13.776C29.3645 14.3678 31.2703 16.0228 32.2132 18.3599C32.7548 19.6939 32.8551 21.359 32.494 22.8034C32.4138 23.1344 32.1329 23.8365 31.8822 24.3581C31.481 25.1705 31.2804 25.4514 30.498 26.2237C29.7256 26.986 29.4247 27.2167 28.6323 27.6079C27.3384 28.2399 26.6162 28.4104 25.2721 28.4104C24.4396 28.4104 23.9782 28.3602 23.3864 28.1897C20.929 27.4876 19.0031 25.662 18.2308 23.2848C17.8596 22.1614 17.7995 20.4061 18.0803 19.2726C18.8527 16.2033 21.4806 13.9164 24.56 13.6355C25.4426 13.5553 26.205 13.6054 26.9271 13.776ZM28.0104 35.4016C27.6895 35.9733 27.0074 36.545 26.3654 36.7958C25.8338 36.9864 25.6132 36.9964 18.9128 36.9964C11.38 36.9964 11.5204 37.0064 10.6478 36.4147C10.2465 36.1338 9.5745 35.2912 9.5745 35.0706C9.5745 35.0305 13.7773 34.9903 18.9128 34.9903H28.2411L28.0104 35.4016Z" fill="#8965E5"/>
<path d="M29.113 17.8479C28.9424 17.9181 28.1902 18.7707 27.0668 20.175C26.0938 21.3987 25.2713 22.4218 25.2512 22.4419C25.2412 22.4619 24.6394 21.9103 23.9272 21.2182L22.6333 19.9443H22.1318C21.54 19.9443 21.1488 20.2051 21.0284 20.6765C20.8479 21.3686 20.9281 21.499 22.854 23.4248C24.3886 24.9695 24.7297 25.2504 25.0506 25.3106C25.7327 25.441 25.9032 25.2905 27.9695 22.7027C30.788 19.182 30.6376 19.4026 30.6376 18.8811C30.6376 18.0786 29.8753 17.557 29.113 17.8479Z" fill="#8965E5"/>
</svg>
