<svg width="42" height="42" viewBox="0 0 42 42" fill="none" xmlns="http://www.w3.org/2000/svg">
<path d="M20.2662 2.35559C19.5761 2.72265 19.3852 3.1778 19.3852 4.49187V5.43153L19.1136 5.47558C14.9879 6.17299 11.5449 9.30032 10.3923 13.3967C10.0766 14.4979 10.0473 14.8576 9.98855 18.5428C9.93716 22.0446 9.92982 22.162 9.74629 22.9108C9.1957 25.1792 8.10921 27.0219 6.43543 28.5195C5.52512 29.3417 5.15807 30.274 5.36362 31.3018C5.53981 32.2121 6.06837 32.8875 6.90526 33.2912L7.38244 33.5188H21.0003H34.6181L35.0953 33.2912C36.5048 32.6158 37.0774 31.0081 36.4167 29.606C36.2552 29.2536 35.9983 28.9453 35.2641 28.2185C33.6344 26.6034 32.7828 25.0912 32.2543 22.9108C32.0707 22.162 32.0634 22.0446 32.012 18.5428C31.9533 14.8576 31.9239 14.4979 31.6083 13.3967C30.8081 10.5557 28.87 8.10371 26.33 6.69421C25.3022 6.12894 24.0175 5.67379 22.8943 5.48292L22.6153 5.43153V4.50655C22.6153 4.00001 22.5786 3.45676 22.5346 3.3026C22.4245 2.93554 22.0794 2.53178 21.7271 2.35559C21.3527 2.16472 20.6259 2.16472 20.2662 2.35559Z" fill="#01C3AC"/>
<path d="M9.85657 3.53751C9.27662 3.82382 7.55878 5.89402 6.59709 7.46503C4.8866 10.2473 3.90289 13.4921 3.77075 16.7883C3.71202 18.2712 3.84416 18.6676 4.53423 19.0714C5.14354 19.4238 6.04651 19.299 6.509 18.7851C6.85403 18.418 6.91276 18.1758 6.97883 16.9351C7.01554 16.2818 7.09629 15.4302 7.16236 15.0484C7.72029 11.8037 9.09309 8.98465 11.3028 6.57675C12.103 5.7105 12.2131 5.48292 12.1764 4.84424C12.147 4.23492 11.8901 3.81648 11.3909 3.5522C10.9577 3.32462 10.297 3.31728 9.85657 3.53751Z" fill="#01C3AC"/>
<path d="M30.6099 3.5522C30.1107 3.81648 29.8538 4.23492 29.8244 4.84424C29.7877 5.48292 29.8978 5.7105 30.698 6.57675C32.9077 8.98465 34.2805 11.8037 34.8384 15.0484C34.9045 15.4302 34.9853 16.2818 35.022 16.9351C35.088 18.1758 35.1468 18.418 35.4918 18.7851C35.9543 19.299 36.8573 19.4238 37.4666 19.0714C38.1566 18.6603 38.2888 18.2712 38.2301 16.781C38.0906 13.4701 37.1142 10.2473 35.4037 7.46503C34.4347 5.87934 32.7169 3.81648 32.1369 3.53751C31.6891 3.31728 31.0431 3.32462 30.6099 3.5522Z" fill="#01C3AC"/>
<path d="M15.2007 35.1267C15.2007 35.2515 15.5457 36.2352 15.6999 36.5288C16.2652 37.652 17.2268 38.6284 18.2987 39.1643C19.2383 39.6341 19.9284 39.7957 21.0002 39.7957C22.072 39.7957 22.7621 39.6341 23.7017 39.1643C24.7736 38.6284 25.7352 37.652 26.3005 36.5288C26.4547 36.2352 26.7997 35.2515 26.7997 35.1267C26.7997 35.112 24.1936 35.0973 21.0002 35.0973C17.8141 35.0973 15.2007 35.112 15.2007 35.1267Z" fill="#01C3AC"/>
</svg>
