<svg width="42" height="42" viewBox="0 0 42 42" fill="none" xmlns="http://www.w3.org/2000/svg">
<path d="M5.21737 1.27982C3.66698 1.65716 2.29706 2.78919 1.62441 4.24935C0.582608 6.51341 1.29628 9.32708 3.27323 10.779C4.24941 11.5009 5.22558 11.8126 6.51347 11.8126C7.383 11.8126 8.01464 11.6814 8.76112 11.3533L9.2205 11.1482L10.4346 12.3622C11.099 13.0267 11.6486 13.5927 11.6486 13.6255C11.6486 13.6501 11.4435 13.9865 11.181 14.3638C10.008 16.1029 9.33534 18.0716 9.19589 20.1388C9.01542 22.9607 9.69628 25.4954 11.2631 27.7923L11.6732 28.3911L10.451 29.6216L9.2205 30.8521L8.76112 30.647C8.01464 30.3189 7.383 30.1876 6.51347 30.1876C5.22558 30.1876 4.24941 30.4993 3.27323 31.2212C1.11581 32.8044 0.50878 35.938 1.90331 38.2923C2.24784 38.8829 3.11737 39.7525 3.708 40.097C5.2912 41.0322 7.27636 41.106 8.92519 40.2775C9.96698 39.7525 10.7791 38.924 11.3205 37.8329C11.665 37.1439 11.8127 36.4384 11.8127 35.4868C11.8127 34.6173 11.6814 33.9857 11.3533 33.2392L11.1482 32.7798L12.3623 31.5658C13.0267 30.9013 13.601 30.3517 13.6338 30.3517C13.6748 30.3517 13.9209 30.5158 14.1834 30.7126C15.2498 31.4919 16.9725 32.2466 18.4654 32.5829C19.2037 32.747 19.54 32.7716 21.0002 32.7716C22.8541 32.7716 23.4529 32.6814 24.8146 32.222C25.7252 31.9185 27.1115 31.2212 27.7842 30.7208C28.0713 30.5158 28.3256 30.3517 28.3584 30.3517C28.3994 30.3517 28.9736 30.9013 29.6381 31.5658L30.8521 32.7798L30.6799 33.1654C29.0475 36.8404 31.7627 40.8763 35.7248 40.663C37.8986 40.5482 39.6377 39.2603 40.4252 37.1767C40.6139 36.6845 40.6385 36.5122 40.6467 35.4786C40.6467 34.4779 40.6221 34.2482 40.4498 33.7232C39.9658 32.2384 38.7353 30.9915 37.2342 30.4583C36.7502 30.2779 36.4385 30.2286 35.6756 30.204C34.6338 30.1712 34.035 30.2779 33.2228 30.647L32.7799 30.8521L31.5494 29.6216L30.3271 28.3911L30.7373 27.7923C32.2877 25.5118 32.9767 22.9771 32.8045 20.1634C32.6732 18.1126 31.9842 16.1029 30.8193 14.3638C30.5568 13.9865 30.3517 13.6501 30.3517 13.6255C30.3517 13.5927 30.9014 13.0267 31.5658 12.3622L32.7799 11.1482L33.2393 11.3533C33.9857 11.6814 34.6174 11.8126 35.4869 11.8126C36.7748 11.8126 37.751 11.5009 38.7271 10.779C40.8846 9.19584 41.4916 6.06224 40.0971 3.70794C39.7525 3.11732 38.883 2.24779 38.2924 1.90326C36.7092 0.968098 34.724 0.894272 33.0752 1.72279C30.5322 3.00247 29.4658 6.09505 30.6471 8.76107L30.8521 9.22044L29.6381 10.4345C28.9736 11.099 28.4076 11.6486 28.3748 11.6486C28.3502 11.6486 28.0139 11.4435 27.6447 11.1892C26.3404 10.3197 24.8803 9.69622 23.3791 9.3763C22.3701 9.16302 19.6057 9.16302 18.6295 9.38451C17.0955 9.71263 15.6107 10.3443 14.3639 11.181C13.9865 11.4435 13.6502 11.6486 13.6256 11.6486C13.5928 11.6486 13.0267 11.099 12.3623 10.4345L11.1482 9.22044L11.3533 8.76107C11.6814 8.01458 11.8127 7.38294 11.8127 6.51341C11.8127 5.22552 11.501 4.24935 10.7791 3.27318C9.56503 1.61615 7.24355 0.787628 5.21737 1.27982ZM23.1494 12.1243C26.685 13.0677 29.2279 15.7255 29.9498 19.2365C30.0975 19.9337 30.1139 20.2536 30.081 21.3283C30.0318 22.7966 29.835 23.6579 29.2853 24.831C28.9654 25.5201 28.26 26.6603 28.1533 26.6603C28.1205 26.6603 27.9893 26.4716 27.8662 26.2501C27.3166 25.274 26.242 24.1419 25.315 23.5677C25.1264 23.4529 24.9623 23.3462 24.9459 23.3298C24.9295 23.3134 25.0525 23.1247 25.2166 22.9033C25.9303 21.9271 26.2502 20.9509 26.2502 19.7451C26.2502 18.7033 26.1435 18.2439 25.7006 17.3169C25.2084 16.2915 24.4373 15.504 23.4447 15.0201C22.5506 14.5771 21.9517 14.4376 21.0002 14.4376C20.0486 14.4376 19.4498 14.5771 18.5557 15.0201C17.5631 15.504 16.792 16.2915 16.2998 17.3169C15.8568 18.2439 15.7502 18.7033 15.7502 19.7451C15.7502 20.9509 16.0701 21.9271 16.7838 22.9033C16.9478 23.1247 17.0709 23.3134 17.0545 23.3298C17.0381 23.3462 16.874 23.4529 16.6853 23.5677C15.7584 24.1419 14.6838 25.274 14.1342 26.2501C14.0111 26.4716 13.8799 26.6603 13.8471 26.6603C13.7486 26.6603 13.0185 25.479 12.6986 24.8064C12.1654 23.6579 11.9685 22.7884 11.9193 21.3283C11.8865 20.2454 11.9029 19.9337 12.0506 19.2201C12.8053 15.5615 15.701 12.7068 19.3596 12.0177C20.2619 11.8454 22.3127 11.9029 23.1494 12.1243Z" fill="#01C3AC"/>
</svg>
