<svg width="42" height="42" viewBox="0 0 42 42" fill="none" xmlns="http://www.w3.org/2000/svg">
<g clip-path="url(#clip0_266_75)">
<path d="M19.4414 0.114845C16.5211 0.7875 14.4293 2.72344 13.5598 5.55352C13.3629 6.20977 13.3383 6.39844 13.3383 7.66992C13.3301 8.89219 13.3547 9.14648 13.5188 9.7125C14.052 11.5664 15.1758 13.125 16.7426 14.175C17.1281 14.4293 17.3906 14.6672 17.4234 14.782C17.4481 14.8887 17.4727 15.2988 17.4727 15.6926C17.4727 16.3488 17.4891 16.4309 17.6777 16.6113C17.8664 16.8082 17.9238 16.8164 18.859 16.8164C19.4004 16.8164 19.9008 16.7918 19.9746 16.7672C20.2945 16.6441 20.3438 16.3324 20.3438 14.3965V12.5508H19.8516C19.4332 12.5508 19.3184 12.518 19.1543 12.3457C18.9328 12.1324 18.8918 11.7715 19.0559 11.5582C19.2691 11.2793 19.4988 11.2383 21 11.2383C22.5012 11.2383 22.7309 11.2793 22.9441 11.5582C23.1082 11.7715 23.0672 12.1324 22.8457 12.3457C22.6817 12.518 22.5668 12.5508 22.1484 12.5508H21.6563V14.3965C21.6563 16.3324 21.7055 16.6441 22.0254 16.7672C22.0992 16.7918 22.5996 16.8164 23.141 16.8164C24.0762 16.8164 24.1336 16.8082 24.3223 16.6113C24.5109 16.4309 24.5274 16.3488 24.5274 15.6926C24.5274 15.2988 24.552 14.8887 24.5766 14.782C24.6094 14.6672 24.8637 14.4293 25.2164 14.1996C25.5363 13.9781 25.9793 13.6418 26.2008 13.4449C27.1852 12.5754 28.0793 11.1152 28.4649 9.76172C28.6945 8.97422 28.7766 7.30898 28.6289 6.43125C28.2106 3.82266 26.4141 1.5668 23.9531 0.54961C22.977 0.147657 22.5094 0.0574226 21.1641 0.032814C20.3356 0.016407 19.7367 0.0410156 19.4414 0.114845ZM21.7793 2.24766C22.2469 2.44453 22.3617 2.87109 22.05 3.23203C21.8777 3.42891 21.8039 3.44531 21 3.47813C19.5973 3.52734 18.5883 4.00313 17.7106 5.01211C17.4809 5.28281 17.2102 5.5207 17.1035 5.54531C16.841 5.61094 16.4227 5.37305 16.357 5.12695C16.2668 4.75781 16.4063 4.49531 17.0871 3.81445C17.6449 3.26484 17.8992 3.07617 18.5391 2.76445C19.6957 2.19844 21.1149 1.96875 21.7793 2.24766ZM16.5293 7.25977C16.9066 7.62891 16.7262 8.20312 16.2012 8.33438C15.9469 8.4 15.6106 8.19492 15.5039 7.90781C15.3891 7.6207 15.3973 7.58789 15.6352 7.30898C15.9059 6.98906 16.2422 6.97266 16.5293 7.25977Z" fill="#00A1FF"/>
<path d="M8.81836 18.2109C8.72812 18.2437 6.71016 20.2289 4.32305 22.616C0.00820312 26.9473 0 26.9555 0 27.2918C0 27.5707 0.0492187 27.6691 0.254297 27.8414C0.541406 28.0793 0.730078 28.1039 1.05 27.9398C1.17305 27.8742 2.85469 26.2254 4.79883 24.2895L8.32617 20.7539L8.36719 30.368L8.4082 39.9902L8.68711 40.507C9.03164 41.1387 9.54844 41.6145 10.1391 41.8359C10.582 42 10.7297 42 21 42C31.2703 42 31.418 42 31.8609 41.8359C32.4516 41.6145 32.9684 41.1387 33.3129 40.507L33.5918 39.9902L33.6328 30.368L33.6738 20.7539L37.2012 24.2895C39.1453 26.2254 40.827 27.8742 40.95 27.9398C41.2699 28.1039 41.4586 28.0793 41.7457 27.8414C41.9508 27.6691 42 27.5707 42 27.2918C42 26.9473 41.9918 26.9473 37.6113 22.5586L33.2227 18.1699L21.1066 18.1535C14.4375 18.1453 8.90859 18.1699 8.81836 18.2109ZM17.9402 24.6504C18.3094 24.8062 18.5145 24.9867 18.6785 25.2902C18.8672 25.6594 20.918 32.6648 20.918 32.952C20.918 33.2473 20.6062 33.5508 20.3027 33.5508C19.8926 33.5508 19.7367 33.2965 19.3512 32.0004L18.9902 30.7617H17.4973H16.0043L15.873 31.2293C15.4383 32.7879 15.2168 33.3457 14.9953 33.4687C14.7164 33.6164 14.3965 33.518 14.1668 33.2062L13.9945 32.9766L15.0937 29.2687C15.6926 27.2262 16.275 25.3969 16.3734 25.2164C16.5047 24.9867 16.6852 24.8145 16.9148 24.6996C17.3332 24.4945 17.5383 24.4863 17.9402 24.6504ZM25.6922 24.7652C26.5863 25.1098 27.382 25.9055 27.7348 26.7996C27.8906 27.2098 27.9234 27.4723 27.9562 28.7602C27.9809 29.7117 27.9562 30.409 27.8906 30.7043C27.6691 31.8035 26.9062 32.7551 25.8645 33.2473C25.3312 33.5016 25.2574 33.5098 24.3141 33.5098C23.3543 33.5098 23.3133 33.5016 23.0262 33.2801C22.452 32.8453 22.4684 32.9684 22.493 28.9734L22.5176 25.3887L22.7145 25.1098C23.0426 24.6504 23.4527 24.5109 24.4043 24.552C24.9785 24.5766 25.3641 24.6422 25.6922 24.7652ZM24.8637 35.8723C25.1344 36.0773 25.1836 36.3234 25.1836 37.4473C25.1836 38.5711 25.1344 38.8172 24.8637 39.0223C24.6586 39.1781 24.273 39.1453 24.0598 38.9484C23.8793 38.7762 23.8711 38.727 23.8711 37.4391V36.102L24.0844 35.9379C24.3305 35.7492 24.6668 35.7164 24.8637 35.8723ZM27.6035 35.8148C27.8906 35.9297 27.9727 36.2906 27.9727 37.4473C27.9727 38.8664 27.8578 39.1289 27.2672 39.1289C27.1523 39.1289 26.9719 39.0387 26.8652 38.9238C26.6684 38.727 26.6602 38.6941 26.6602 37.4473C26.6602 36.2004 26.6684 36.1676 26.8652 35.9707C27.0621 35.7738 27.3328 35.7164 27.6035 35.8148ZM30.5566 35.9707C30.7535 36.1676 30.7617 36.2004 30.7617 37.4473C30.7617 38.6941 30.7535 38.727 30.5566 38.9238C30.4336 39.0551 30.2613 39.1289 30.1055 39.1289C29.9496 39.1289 29.7773 39.0551 29.6543 38.9238C29.4574 38.727 29.4492 38.6941 29.4492 37.4473C29.4492 36.2004 29.4574 36.1676 29.6543 35.9707C29.7773 35.8395 29.9496 35.7656 30.1055 35.7656C30.2613 35.7656 30.4336 35.8395 30.5566 35.9707Z" fill="#00A1FF"/>
<path d="M17.2347 26.6355C17.1035 27.0785 16.8738 27.8414 16.7261 28.3418C16.5867 28.834 16.4472 29.2934 16.4226 29.3426C16.398 29.4246 16.6359 29.4492 17.4644 29.4492C18.2355 29.4492 18.539 29.4246 18.539 29.3508C18.539 29.2441 17.5546 25.8973 17.5136 25.8562C17.4972 25.8398 17.3742 26.1844 17.2347 26.6355Z" fill="#00A1FF"/>
<path d="M23.7891 29.0389V32.2627L24.4699 32.2217C25.2738 32.1807 25.684 31.992 26.1188 31.4834C26.5945 30.9338 26.6848 30.4908 26.6438 28.8502C26.6109 27.308 26.5535 27.0865 26.0941 26.5533C25.7086 26.1268 25.2164 25.9135 24.4453 25.8643L23.7891 25.815V29.0389Z" fill="#00A1FF"/>
</g>
<defs>
<clipPath id="clip0_266_75">
<rect width="42" height="42" fill="white"/>
</clipPath>
</defs>
</svg>
