<svg width="42" height="42" viewBox="0 0 42 42" fill="none" xmlns="http://www.w3.org/2000/svg">
<g clip-path="url(#clip0_246_2708)">
<path d="M19.906 0.216815C19.3637 0.461731 18.8039 1.06527 18.594 1.60758C18.3666 2.21112 18.4365 3.26076 18.7514 3.79433C19.0576 4.31914 19.6086 4.77399 20.1334 4.94893L20.562 5.09762V7.27562V9.45361H20.9994H21.4367V7.27562V5.09762L21.8916 4.94018C22.5214 4.73025 23.1949 4.05673 23.4048 3.42695C23.606 2.82341 23.5535 1.86125 23.2911 1.36267C23.0549 0.899079 22.5301 0.409248 22.049 0.190575C21.4717 -0.0718346 20.4921 -0.0630875 19.906 0.216815Z" fill="#8965E5"/>
<path d="M7.36375 5.43074C5.81554 5.75438 4.94959 7.49503 5.60561 8.9995C5.87677 9.62054 6.52404 10.1978 7.16257 10.3815C7.74862 10.5565 8.56209 10.5127 9.04317 10.2766L9.37556 10.1191L10.9413 11.6848L12.5157 13.2593L12.8831 12.8832L13.2592 12.5158L11.6848 10.9413L10.119 9.37562L10.2765 9.04324C10.5127 8.55341 10.5564 7.65247 10.3815 7.11016C9.9791 5.92057 8.63206 5.16833 7.36375 5.43074Z" fill="#8965E5"/>
<path d="M33.4816 5.43025C32.6331 5.64893 31.8809 6.3137 31.6185 7.10967C31.4435 7.65198 31.4873 8.56167 31.7234 9.04275L31.8809 9.37514L30.3152 10.9408L28.7407 12.5153L29.1168 12.8827L29.4842 13.2588L31.0587 11.6843L32.6244 10.1186L32.9568 10.2761C33.4378 10.5122 34.2513 10.556 34.8374 10.381C36.578 9.87371 37.1903 7.5995 35.9657 6.19124C35.4234 5.57895 34.295 5.22907 33.4816 5.43025Z" fill="#8965E5"/>
<path d="M20.387 10.3021C18.3577 10.4421 16.5908 11.0456 14.8764 12.1915C14.0717 12.725 12.6984 14.1071 12.1561 14.9205C10.914 16.7924 10.3105 18.743 10.3018 20.9122C10.3018 22.233 10.433 23.1252 10.7828 24.2361C11.9374 27.8661 14.8939 30.5864 18.6201 31.4523C19.9759 31.7672 22.0227 31.7672 23.3785 31.4523C27.026 30.6039 29.8862 28.0322 31.137 24.4635C31.6619 22.9677 31.8368 20.9472 31.5831 19.294C31.0758 15.9614 28.8628 12.9525 25.7664 11.4043C24.2094 10.617 22.0752 10.1797 20.387 10.3021ZM22.9849 13.4948C23.3435 13.7397 23.4135 13.9234 23.9295 15.8915L24.3494 17.4834L24.9442 17.5184C25.7402 17.5621 25.8976 17.7196 26.16 18.6817C26.4137 19.6177 26.3437 19.8276 25.6702 20.2387C25.4078 20.3874 25.1978 20.5448 25.1978 20.5711C25.1978 20.6061 25.4165 21.4545 25.6877 22.4517C26.16 24.1923 26.1775 24.2973 26.0638 24.6297C25.9063 25.0583 25.4777 25.3732 25.0142 25.3732C24.5593 25.3732 24.087 24.9621 23.9558 24.446C23.8683 24.1311 23.7896 24.0349 23.431 23.8424C22.4425 23.3001 21.4104 23.0815 19.9059 23.0902C18.9263 23.0902 17.3606 23.2914 17.2206 23.4313C17.1856 23.4663 17.6055 24.271 18.1565 25.2332C18.6988 26.1866 19.1712 27.0613 19.1974 27.175C19.2849 27.5162 19.1012 28.0235 18.7776 28.3384C18.4015 28.7058 17.7804 28.802 17.3343 28.5746C16.9669 28.3821 16.7745 28.0935 15.5324 25.9155L14.4828 24.0786L14.0804 24.0261C13.853 23.9911 13.5031 23.8512 13.2845 23.7112C11.8587 22.7666 11.9199 20.5273 13.3894 19.7751C13.5556 19.6876 14.3079 19.4602 15.0601 19.2678C16.6696 18.8479 17.3781 18.5855 18.349 18.0694C19.5823 17.4134 20.457 16.6524 21.1218 15.6465C21.4366 15.1829 21.4366 15.1655 21.3404 14.7369C21.253 14.352 21.2617 14.247 21.3929 13.9671C21.6991 13.3286 22.4251 13.1187 22.9849 13.4948ZM27.2271 14.4132C27.3146 14.4919 27.3846 14.5882 27.3846 14.6319C27.3846 14.6756 27.1222 15.1567 26.8073 15.7078C26.3437 16.5125 26.195 16.7137 26.0376 16.7137C25.8189 16.7137 25.6352 16.565 25.6352 16.3725C25.6352 16.1976 26.5799 14.5182 26.7548 14.3695C26.9385 14.2295 27.0347 14.2383 27.2271 14.4132ZM29.6413 17.5184C29.8162 17.6933 29.7638 18.017 29.5538 18.1132C29.4401 18.1657 28.9328 18.3144 28.4167 18.4543C27.5858 18.673 27.4633 18.6905 27.2971 18.5768C27.0959 18.4368 27.0697 18.1832 27.2446 18.0345C27.3758 17.9207 29.0553 17.4397 29.3614 17.4222C29.4576 17.4134 29.5801 17.4572 29.6413 17.5184ZM28.373 20.9822C28.8366 21.2533 29.2477 21.5507 29.2739 21.6382C29.3264 21.8044 29.099 22.1368 28.9328 22.1368C28.7579 22.1368 26.8773 20.9909 26.8248 20.8597C26.7636 20.7023 26.8948 20.4224 27.0522 20.3612C27.1922 20.3174 27.2709 20.3524 28.373 20.9822Z" fill="#8965E5"/>
<path d="M22.1543 14.107C22.0931 14.1682 22.0493 14.2557 22.0493 14.3169C22.0493 14.4743 24.6647 24.2622 24.7521 24.4109C24.8658 24.6121 25.2595 24.6296 25.3207 24.4284C25.3907 24.2272 22.6966 14.1682 22.5566 14.072C22.3992 13.9758 22.2767 13.9845 22.1543 14.107Z" fill="#8965E5"/>
<path d="M20.7805 17.1861C19.7659 18.2095 18.9262 18.7518 17.4129 19.3466C16.8094 19.5828 16.4595 19.7664 16.4858 19.8277C16.512 19.8889 16.6694 20.5012 16.8531 21.1922C17.0281 21.8832 17.203 22.478 17.238 22.513C17.273 22.548 17.6491 22.5217 18.0777 22.443C19.7046 22.1544 21.7252 22.3031 22.9673 22.7929C23.2472 22.9153 23.4921 22.9941 23.5096 22.9766C23.5533 22.9328 21.7602 16.2764 21.7077 16.2851C21.6727 16.2939 21.2616 16.6963 20.7805 17.1861Z" fill="#8965E5"/>
<path d="M24.6201 18.4366C24.6464 18.524 24.7339 18.8564 24.8126 19.1801L24.9525 19.7661L25.1974 19.6437C25.5561 19.46 25.5648 19.4075 25.4074 18.8214L25.2587 18.2879H24.9175C24.6289 18.2879 24.5852 18.3141 24.6201 18.4366Z" fill="#8965E5"/>
<path d="M14.5708 20.1862C13.355 20.5274 13.0139 20.8685 13.0226 21.752C13.0314 22.6354 13.6262 23.2739 14.4396 23.2739C14.737 23.2739 16.329 22.8891 16.4427 22.7841C16.4602 22.7666 16.3115 22.1193 16.1016 21.3496C15.673 19.7402 15.8042 19.8364 14.5708 20.1862Z" fill="#8965E5"/>
<path d="M15.8382 23.7728C15.5758 23.8515 15.3396 23.9302 15.3221 23.939C15.2609 23.9914 17.3514 27.5865 17.5613 27.7964C17.6663 27.9101 17.8325 27.9976 17.9375 27.9976C18.1649 27.9976 18.4623 27.7002 18.4623 27.4727C18.4623 27.3328 16.3892 23.5978 16.3368 23.6328C16.328 23.6328 16.1006 23.7028 15.8382 23.7728Z" fill="#8965E5"/>
<path d="M1.75623 18.542C1.08271 18.7606 0.479172 19.303 0.190522 19.9502C-0.0543928 20.4925 -0.0543928 21.5072 0.190522 22.0495C0.409196 22.5306 0.899027 23.0554 1.36262 23.2916C1.86119 23.554 2.82336 23.6065 3.4269 23.4053C4.05668 23.1954 4.7302 22.5218 4.94013 21.8921L5.09757 21.4372H7.27557H9.45356V21.1398C9.45356 20.9736 9.4798 20.7812 9.50604 20.7025C9.55853 20.58 9.3311 20.5625 7.32805 20.5625H5.09757L4.94887 20.1339C4.77393 19.6091 4.31909 19.058 3.79427 18.7519C3.46189 18.5595 3.26071 18.5157 2.68341 18.4895C2.28979 18.4807 1.87869 18.4982 1.75623 18.542Z" fill="#8965E5"/>
<path d="M38.5546 18.5862C37.8723 18.8399 37.2863 19.4521 37.0414 20.1607L36.9014 20.563H34.7234H32.5454V21.0004V21.4377H34.7234H36.9014L37.0588 21.8925C37.2688 22.5223 37.9423 23.1958 38.5721 23.4058C39.1756 23.607 40.1378 23.5545 40.6364 23.2921C42.1408 22.5136 42.482 20.4406 41.3099 19.2247C40.8113 18.6999 40.3914 18.525 39.5867 18.49C39.1319 18.4725 38.7733 18.5075 38.5546 18.5862Z" fill="#8965E5"/>
<path d="M10.9232 30.3329L9.37494 31.8811L9.04256 31.7237C8.85887 31.6362 8.474 31.54 8.17661 31.5225C6.61965 31.3913 5.40382 32.5109 5.39507 34.0766C5.38633 35.5374 6.4622 36.6045 7.92295 36.6045C9.48865 36.5957 10.6083 35.3799 10.4771 33.823C10.4596 33.5256 10.3633 33.1407 10.2759 32.957L10.1184 32.6246L11.6841 31.0589L13.2498 29.4845L12.9087 29.1346C12.725 28.9421 12.5413 28.7847 12.5151 28.7847C12.4889 28.7847 11.7716 29.4845 10.9232 30.3329Z" fill="#8965E5"/>
<path d="M29.0911 29.1345L28.75 29.4843L30.3157 31.0588L31.8814 32.6245L31.724 32.9569C31.4878 33.4467 31.4441 34.3476 31.619 34.89C31.9689 35.9221 32.9485 36.6044 34.0944 36.5956C35.5551 36.5956 36.6048 35.5372 36.6048 34.0765C36.596 32.5108 35.3802 31.3912 33.8232 31.5224C33.5258 31.5399 33.141 31.6361 32.9573 31.7236L32.6249 31.881L31.0767 30.3328C30.2282 29.4843 29.5022 28.7846 29.476 28.7846C29.4498 28.7846 29.2748 28.942 29.0911 29.1345Z" fill="#8965E5"/>
<path d="M20.5622 34.7237V36.9017L20.1336 37.0504C19.6087 37.2253 19.0577 37.6801 18.7515 38.205C18.5679 38.5198 18.5154 38.756 18.4804 39.2896C18.4279 40.1555 18.5941 40.6366 19.1364 41.2139C20.3347 42.491 22.4865 42.1936 23.2912 40.6366C23.5536 40.138 23.6061 39.1759 23.4049 38.5723C23.195 37.9425 22.5215 37.269 21.8917 37.0591L21.4369 36.9017V34.7237V32.5457H20.9995H20.5622V34.7237Z" fill="#8965E5"/>
</g>
<defs>
<clipPath id="clip0_246_2708">
<rect width="42" height="42" fill="white"/>
</clipPath>
</defs>
</svg>
