<svg width="42" height="42" viewBox="0 0 42 42" fill="none" xmlns="http://www.w3.org/2000/svg">
<path d="M15.4821 3.10112C8.93436 3.98734 3.83546 9.21322 3.0548 15.8177C3.00557 16.2608 2.98447 17.0555 3.0126 17.9629C3.06183 19.883 3.31502 21.142 3.99018 22.8441C5.56557 26.8391 8.8359 29.9198 12.915 31.2561C14.4623 31.7626 15.7563 31.9665 17.4583 31.9665C20.4825 31.9665 23.1269 31.1717 25.6306 29.4907L26.3621 28.9984L31.2219 33.8585C34.9493 37.5792 36.152 38.7468 36.3981 38.8523C36.8342 39.0492 37.5797 39.0492 37.9876 38.8523C38.3322 38.6905 38.7612 38.2474 38.9019 37.9028C39.0496 37.5511 39.0285 36.7774 38.8526 36.3976C38.7471 36.1514 37.5867 34.9557 33.8592 31.221L28.9994 26.3608L29.4495 25.6997C30.7225 23.8358 31.5735 21.6273 31.8619 19.4118C31.9955 18.3708 31.9955 16.5843 31.8619 15.5644C31.2078 10.5847 28.0008 6.27322 23.4434 4.24055C22.1212 3.64973 20.9115 3.3051 19.4135 3.09409C18.5344 2.96749 16.4245 2.96749 15.4821 3.10112ZM19.6245 6.84293C21.8258 7.32121 23.5067 8.2426 25.1172 9.84623C26.13 10.8591 26.6856 11.6257 27.2553 12.8003C29.5832 17.6323 27.9656 23.5193 23.4926 26.4945C21.7555 27.648 19.9832 28.2106 17.8662 28.288C14.6451 28.4005 11.8741 27.2611 9.59546 24.8838C8.217 23.4419 7.28865 21.6765 6.82447 19.5876C6.64865 18.7928 6.59942 16.7742 6.74008 15.888C7.26755 12.6034 9.16645 9.8181 12.0781 8.08786C13.119 7.46891 14.5396 6.96954 15.897 6.74446C16.7128 6.61083 18.8016 6.6671 19.6245 6.84293Z" fill="#FF6692"/>
</svg>
